<svg version="1.1" preserveAspectRatio="none" xmlns="http://www.w3.org/2000/svg" width="500" height="500" viewBox="0 0 500 500"><rect width="100%" height="100%" fill="#454932" fill-opacity="1"/><svg viewBox="94.2372 197.2525 343.9376 292.3733" width="333" height="283.0755023585674" x="83.5px" y="108.4622px" xmlns="http://www.w3.org/2000/svg" xmlns:xlink="http://www.w3.org/1999/xlink" preserveAspectRatio="none"><defs></defs><style>.aLgOaV3zRcolors-3 {fill:#1F2211;fill-opacity:1;}.aLgOaV3zRcolors-4 {fill:#34391D;fill-opacity:1;}.aLgOaV3zRcolors-5 {fill:#454932;fill-opacity:1;}.aLgOaV3zRcolors-6 {fill:#F7E3DF;fill-opacity:1;}.aLgOaV3zRcolors-7 {fill:#E5BDB5;fill-opacity:1;}.companyName {fill:#F7E3DF;fill-opacity:1;}.icon1 {fill:#E5BDB5;fill-opacity:1;}.icon2 {fill:#A69B75;fill-opacity:1;}.icon3 {fill:#717751;fill-opacity:1;}.icon3-str {stroke:#717751;stroke-opacity:1;}.text {fill:#F7E3DF;fill-opacity:1;}</style><g opacity="1" transform="rotate(0 104.2538 467.1258)">
<svg width="323.9045" height="22.5" x="104.2538" y="467.1258" version="1.1" preserveAspectRatio="none" viewBox="2.36 -31 564.84 39.24">
  <g transform="matrix(1 0 0 1 0 0)" class="text"><path id="id-6izo4zJp25" d="M26.84-2.48Q25.52-1.44 22.70-0.56Q19.88 0.32 17.48 0.32L17.48 0.32Q12.96 0.32 9.52-1.54Q6.08-3.40 4.22-6.64Q2.36-9.88 2.36-13.92L2.36-13.92Q2.36-18.64 4.36-22.10Q6.36-25.56 9.76-27.40Q13.16-29.24 17.20-29.24L17.20-29.24Q19.64-29.24 21.80-28.66Q23.96-28.08 25.68-27.12L25.68-27.12L24.40-23.56Q23.12-24.28 21.18-24.82Q19.24-25.36 17.68-25.36L17.68-25.36Q14.32-25.36 11.74-24Q9.16-22.64 7.76-20.12Q6.36-17.60 6.36-14.24L6.36-14.24Q6.36-11.12 7.76-8.68Q9.16-6.24 11.72-4.90Q14.28-3.56 17.56-3.56L17.56-3.56Q19.08-3.56 20.52-3.86Q21.96-4.16 22.92-4.72L22.92-4.72L22.92-10.44L17.16-10.44L17.16-14.16L26.84-14.16L26.84-2.48Z M37.32-16.56L41.04-16.56L41.04 0L37.32 0L37.32-16.56ZM37.04-22.52Q37.04-23.40 37.72-24Q38.40-24.60 39.28-24.60L39.28-24.60Q40.16-24.60 40.82-24Q41.48-23.40 41.48-22.52L41.48-22.52Q41.48-21.64 40.82-21.04Q40.16-20.44 39.28-20.44L39.28-20.44Q38.40-20.44 37.72-21.04Q37.04-21.64 37.04-22.52L37.04-22.52Z M63.12-16.56L67.28-16.56L58.44 0.48L58.24 0.48L49.04-16.56L53.48-16.56L58.48-6L63.12-16.56Z M82.64-2.80Q84.72-2.80 86.68-4.24L86.68-4.24L88.40-1.48Q87.08-0.60 85.54-0.10Q84 0.40 82.56 0.40L82.56 0.40Q79.80 0.40 77.74-0.74Q75.68-1.88 74.56-3.88Q73.44-5.88 73.44-8.40L73.44-8.40Q73.44-10.84 74.66-12.86Q75.88-14.88 78-16.06Q80.12-17.24 82.64-17.24L82.64-17.24Q85.88-17.24 88.06-15.34Q90.24-13.44 91.04-10.04L91.04-10.04L77.92-5.44Q78.64-4.20 79.86-3.50Q81.08-2.80 82.64-2.80L82.64-2.80ZM82.36-14.28Q80.08-14.28 78.60-12.68Q77.12-11.08 77.12-8.60L77.12-8.60Q77.12-8 77.16-7.68L77.16-7.68L86.80-11.24Q86.20-12.60 85.10-13.44Q84-14.28 82.36-14.28L82.36-14.28Z M115.12-28.92L134.32-28.92L134.32-25.20L126.56-25.20L126.56 0L122.68 0L122.68-25.20L115.12-25.20L115.12-28.92Z M153.88-17.20Q156.20-17.20 157.72-15.82Q159.24-14.44 159.28-12.24L159.28-12.24L159.28 0L155.52 0L155.52-10.96Q155.44-12.36 154.68-13.16Q153.92-13.96 152.40-14L152.40-14Q150.96-14 149.80-13.20Q148.64-12.40 147.98-10.96Q147.32-9.52 147.32-7.76L147.32-7.76L147.32 0L143.60 0L143.60-31L147.24-31L147.24-13.56Q148.16-15.20 149.90-16.20Q151.64-17.20 153.88-17.20L153.88-17.20Z M169.72-16.56L173.44-16.56L173.44 0L169.72 0L169.72-16.56ZM169.44-22.52Q169.44-23.40 170.12-24Q170.80-24.60 171.68-24.60L171.68-24.60Q172.56-24.60 173.22-24Q173.88-23.40 173.88-22.52L173.88-22.52Q173.88-21.64 173.22-21.04Q172.56-20.44 171.68-20.44L171.68-20.44Q170.80-20.44 170.12-21.04Q169.44-21.64 169.44-22.52L169.44-22.52Z M194.20-17.20Q196.52-17.20 198.04-15.82Q199.56-14.44 199.60-12.24L199.60-12.24L199.60 0L195.84 0L195.84-10.96Q195.76-12.36 195-13.16Q194.24-13.96 192.72-14L192.72-14Q190.52-14 189.08-12.24Q187.64-10.48 187.64-7.76L187.64-7.76L187.64 0L183.92 0L183.92-16.56L187.28-16.56L187.52-13.36Q188.40-15.16 190.16-16.18Q191.92-17.20 194.20-17.20L194.20-17.20Z M224.12-16.56L227.52-16.56L227.52 0.12Q227.52 2.40 226.36 4.24Q225.20 6.08 223.06 7.16Q220.92 8.24 218.04 8.24L218.04 8.24Q215.52 8.24 213.70 7.40Q211.88 6.56 210.04 4.92L210.04 4.92L212.24 2.36Q213.60 3.64 214.96 4.30Q216.32 4.96 217.96 4.96L217.96 4.96Q220.72 4.96 222.22 3.64Q223.72 2.32 223.76 0.08L223.76 0.08L223.80-3.04Q222.88-1.48 221.10-0.54Q219.32 0.40 217 0.40L217 0.40Q214.72 0.40 212.80-0.76Q210.88-1.92 209.74-3.92Q208.60-5.92 208.60-8.36L208.60-8.36Q208.60-10.88 209.78-12.90Q210.96-14.92 212.96-16.08Q214.96-17.24 217.24-17.24L217.24-17.24Q219.36-17.24 221.16-16.40Q222.96-15.56 223.84-14.24L223.84-14.24L224.12-16.56ZM218.08-2.68Q220.20-2.68 221.76-3.84Q223.32-5 223.80-6.88L223.80-6.88L223.80-10.16Q223.24-11.96 221.68-13.06Q220.12-14.16 218.08-14.16L218.08-14.16Q215.64-14.16 214-12.56Q212.36-10.96 212.36-8.48L212.36-8.48Q212.36-6.88 213.12-5.56Q213.88-4.24 215.20-3.46Q216.52-2.68 218.08-2.68L218.08-2.68Z M242.68 0.36Q240.84 0.36 239.18-0.28Q237.52-0.92 236.48-2.16L236.48-2.16L238.08-4.32Q239.08-3.36 240.18-2.84Q241.28-2.32 242.36-2.32L242.36-2.32Q243.68-2.32 244.52-2.84Q245.36-3.36 245.36-4.44L245.36-4.44Q245.36-5.28 244.84-5.80Q244.32-6.32 243.66-6.56Q243.00-6.80 241.44-7.28L241.44-7.28Q237.20-8.64 237.20-12.12L237.20-12.12Q237.20-14.20 238.74-15.68Q240.28-17.16 243.04-17.16L243.04-17.16Q244.80-17.16 246.16-16.72Q247.52-16.28 248.68-15.32L248.68-15.32L247.20-13.04Q246.56-13.72 245.58-14.12Q244.60-14.52 243.72-14.56L243.72-14.56Q242.60-14.56 241.80-14.02Q241.00-13.48 241.00-12.56L241.00-12.56Q241.00-11.80 241.52-11.30Q242.04-10.80 242.60-10.58Q243.16-10.36 244.80-9.84L244.80-9.84Q246.84-9.16 247.98-8.08Q249.12-7 249.12-5.16L249.12-5.16Q249.12-2.76 247.44-1.20Q245.76 0.36 242.68 0.36L242.68 0.36Z M288.52-16.56L291.96-16.56L291.96 0L288.24 0L288.24-2.72Q287.36-1.56 285.68-0.58Q284 0.40 281.88 0.40L281.88 0.40Q279.52 0.40 277.62-0.62Q275.72-1.64 274.62-3.60Q273.52-5.56 273.52-8.28L273.52-8.28Q273.52-11 274.66-13.02Q275.80-15.04 277.74-16.14Q279.68-17.24 282.04-17.24L282.04-17.24Q284.16-17.24 285.72-16.32Q287.28-15.40 288.24-13.92L288.24-13.92L288.52-16.56ZM282.88-2.68Q284.92-2.68 286.38-3.82Q287.84-4.96 288.24-6.92L288.24-6.92L288.24-10.20Q287.76-11.96 286.24-13.06Q284.72-14.16 282.76-14.16L282.76-14.16Q281.28-14.16 280.02-13.44Q278.76-12.72 278.02-11.42Q277.28-10.12 277.28-8.48L277.28-8.48Q277.28-6.88 278.04-5.56Q278.80-4.24 280.08-3.46Q281.36-2.68 282.88-2.68L282.88-2.68Z M334.96-23.76Q333.40-24.60 331.64-25.12Q329.88-25.64 328.32-25.64L328.32-25.64Q325.96-25.64 324.58-24.58Q323.20-23.52 323.20-21.68L323.20-21.68Q323.20-19.88 324.82-18.74Q326.44-17.60 329.44-16.48L329.44-16.48Q331.68-15.68 333.22-14.74Q334.76-13.80 335.78-12.14Q336.80-10.48 336.80-7.92L336.80-7.92Q336.80-5.60 335.64-3.72Q334.48-1.84 332.34-0.76Q330.20 0.32 327.32 0.32L327.32 0.32Q324.64 0.32 322.16-0.54Q319.68-1.40 317.80-2.72L317.80-2.72L319.52-5.80Q321.00-4.68 323.08-3.90Q325.16-3.12 326.96-3.12L326.96-3.12Q329.28-3.12 331.02-4.32Q332.76-5.52 332.76-7.88L332.76-7.88Q332.76-9.88 331.30-11.06Q329.84-12.24 327.20-13.28L327.20-13.28Q324.76-14.20 323.14-15.08Q321.52-15.96 320.36-17.50Q319.20-19.04 319.20-21.36L319.20-21.36Q319.20-24.76 321.58-26.86Q323.96-28.96 327.76-29.08L327.76-29.08Q332.44-29.08 336.44-26.76L336.44-26.76L334.96-23.76Z M354.12-2.80Q356.20-2.80 358.16-4.24L358.16-4.24L359.88-1.48Q358.56-0.60 357.02-0.10Q355.48 0.40 354.04 0.40L354.04 0.40Q351.28 0.40 349.22-0.74Q347.16-1.88 346.04-3.88Q344.92-5.88 344.92-8.40L344.92-8.40Q344.92-10.84 346.14-12.86Q347.36-14.88 349.48-16.06Q351.60-17.24 354.12-17.24L354.12-17.24Q357.36-17.24 359.54-15.34Q361.72-13.44 362.52-10.04L362.52-10.04L349.40-5.44Q350.12-4.20 351.34-3.50Q352.56-2.80 354.12-2.80L354.12-2.80ZM353.84-14.28Q351.56-14.28 350.08-12.68Q348.60-11.08 348.60-8.60L348.60-8.60Q348.60-8 348.64-7.68L348.64-7.68L358.28-11.24Q357.68-12.60 356.58-13.44Q355.48-14.28 353.84-14.28L353.84-14.28Z M384.60-1.56Q383.48-0.64 381.94-0.12Q380.40 0.40 378.80 0.40L378.80 0.40Q376.12 0.40 374.06-0.68Q372-1.76 370.86-3.74Q369.72-5.72 369.72-8.32L369.72-8.32Q369.72-10.88 370.92-12.86Q372.12-14.84 374.12-15.92Q376.12-17 378.44-17L378.44-17Q382.24-17 384.72-14.92L384.72-14.92L382.84-12.48Q382.04-13.08 381-13.50Q379.96-13.92 378.76-13.92L378.76-13.92Q377.28-13.92 376.06-13.18Q374.84-12.44 374.14-11.16Q373.44-9.88 373.44-8.32L373.44-8.32Q373.44-6.76 374.18-5.48Q374.92-4.20 376.20-3.44Q377.48-2.68 379.12-2.68L379.12-2.68Q381.16-2.68 382.68-3.88L382.68-3.88L384.60-1.56Z M391.96-8.44Q391.96-10.88 393.14-12.90Q394.32-14.92 396.42-16.08Q398.52-17.24 401.16-17.24L401.16-17.24Q403.80-17.24 405.86-16.08Q407.92-14.92 409.06-12.92Q410.20-10.92 410.20-8.44L410.20-8.44Q410.20-5.96 409.06-3.94Q407.92-1.92 405.84-0.76Q403.76 0.40 401.08 0.40L401.08 0.40Q398.48 0.40 396.40-0.70Q394.32-1.80 393.14-3.80Q391.96-5.80 391.96-8.44L391.96-8.44ZM395.72-8.40Q395.72-6.84 396.42-5.52Q397.12-4.20 398.34-3.44Q399.56-2.68 401.04-2.68L401.04-2.68Q403.36-2.68 404.88-4.32Q406.40-5.96 406.40-8.40L406.40-8.40Q406.40-10.84 404.88-12.50Q403.36-14.16 401.04-14.16L401.04-14.16Q399.52-14.16 398.32-13.38Q397.12-12.60 396.42-11.28Q395.72-9.96 395.72-8.40L395.72-8.40Z M429.48-17.20Q431.80-17.20 433.32-15.82Q434.84-14.44 434.88-12.24L434.88-12.24L434.88 0L431.12 0L431.12-10.96Q431.04-12.36 430.28-13.16Q429.52-13.96 428.00-14L428.00-14Q425.80-14 424.36-12.24Q422.92-10.48 422.92-7.76L422.92-7.76L422.92 0L419.20 0L419.20-16.56L422.56-16.56L422.80-13.36Q423.68-15.16 425.44-16.18Q427.20-17.20 429.48-17.20L429.48-17.20Z M458.88-31L462.60-31L462.60 0L458.84 0L458.84-2.60Q457.64-1.20 455.90-0.40Q454.16 0.40 452.08 0.40L452.08 0.40Q449.76 0.40 447.88-0.72Q446.00-1.84 444.94-3.86Q443.88-5.88 443.88-8.52L443.88-8.52Q443.88-11.20 445.00-13.18Q446.12-15.16 448.08-16.20Q450.04-17.24 452.52-17.24L452.52-17.24Q454.40-17.24 456.14-16.46Q457.88-15.68 458.88-14.32L458.88-14.32L458.88-31ZM453.24-2.80Q455.40-2.80 456.90-3.96Q458.40-5.12 458.84-7.08L458.84-7.08L458.84-10.20Q458.36-12 456.80-13.14Q455.24-14.28 453.24-14.28L453.24-14.28Q451.72-14.28 450.44-13.54Q449.16-12.80 448.40-11.50Q447.64-10.20 447.64-8.56L447.64-8.56Q447.64-6.96 448.40-5.64Q449.16-4.32 450.44-3.56Q451.72-2.80 453.24-2.80L453.24-2.80Z M490.60-28.92L494.48-28.92L494.48-3.76L509.20-3.76L509.20 0L490.60 0L490.60-28.92Z M518.56-16.56L522.28-16.56L522.28 0L518.56 0L518.56-16.56ZM518.28-22.52Q518.28-23.40 518.96-24Q519.64-24.60 520.52-24.60L520.52-24.60Q521.40-24.60 522.06-24Q522.72-23.40 522.72-22.52L522.72-22.52Q522.72-21.64 522.06-21.04Q521.40-20.44 520.52-20.44L520.52-20.44Q519.64-20.44 518.96-21.04Q518.28-21.64 518.28-22.52L518.28-22.52Z M534.12 0L534.12-13.24L531.28-13.24L531.28-16.60L534.12-16.60L534.12-23.56Q534.12-27.16 535.76-29.08Q537.40-31 540.56-31L540.56-31Q541.44-31 542.44-30.74Q543.44-30.48 544.20-30L544.20-30L542.60-27.28Q542.00-27.92 540.92-27.92L540.92-27.92Q539.40-27.92 538.62-26.88Q537.84-25.84 537.84-23.52L537.84-23.52L537.84-16.60L543.12-16.60L543.12-13.24L537.84-13.24L537.84 0L534.12 0Z M558.80-2.80Q560.88-2.80 562.84-4.24L562.84-4.24L564.56-1.48Q563.24-0.60 561.70-0.10Q560.16 0.40 558.72 0.40L558.72 0.40Q555.96 0.40 553.90-0.74Q551.84-1.88 550.72-3.88Q549.60-5.88 549.60-8.40L549.60-8.40Q549.60-10.84 550.82-12.86Q552.04-14.88 554.16-16.06Q556.28-17.24 558.80-17.24L558.80-17.24Q562.04-17.24 564.22-15.34Q566.40-13.44 567.20-10.04L567.20-10.04L554.08-5.44Q554.80-4.20 556.02-3.50Q557.24-2.80 558.80-2.80L558.80-2.80ZM558.52-14.28Q556.24-14.28 554.76-12.68Q553.28-11.08 553.28-8.60L553.28-8.60Q553.28-8 553.32-7.68L553.32-7.68L562.96-11.24Q562.36-12.60 561.26-13.44Q560.16-14.28 558.52-14.28L558.52-14.28Z"/></g>
</svg>
</g><g opacity="1" transform="rotate(0 94.2372 399.1258)">
<svg width="343.9376" height="50" x="94.2372" y="399.1258" version="1.1" preserveAspectRatio="none" viewBox="1.04 -29.2 204.16 29.68">
  <g transform="matrix(1 0 0 1 0 0)" class="companyName"><path id="id-D6z1nYkh8" d="M1.04-0.80L2.52-1.12Q3.12-1.24 3.30-1.40Q3.48-1.56 3.48-2L3.48-2L3.48-26Q3.48-26.44 3.30-26.60Q3.12-26.76 2.52-26.88L2.52-26.88L1.04-27.20L1.04-28L25.68-28L25.68-20.20L24.68-20.20Q23.84-22.80 23.10-24.12Q22.36-25.44 21.04-26.12Q19.72-26.80 17.32-26.80L17.32-26.80L11.64-26.80L11.64-14.92L21.96-14.92L21.96-13.72L11.64-13.72L11.64-1.20L17.72-1.20Q20.08-1.20 21.44-1.92Q22.80-2.64 23.58-4Q24.36-5.36 25.20-7.96L25.20-7.96L26.24-7.96L26.24 0L1.04 0L1.04-0.80Z M43.76-19.92Q48.76-19.92 51.96-18.32L51.96-18.32L51.48-13.08L50.72-13.08Q49.88-16.04 48.50-17.46Q47.12-18.88 44.48-18.88L44.48-18.88Q41.56-18.88 40.34-16.84Q39.12-14.80 39.12-10.80L39.12-10.80Q39.12-7.48 39.64-5.44Q40.16-3.40 41.52-2.34Q42.88-1.28 45.36-1.28L45.36-1.28Q47.24-1.28 48.80-1.82Q50.36-2.36 51.88-3.40L51.88-3.40L52.40-2.64Q50.52-1.20 48.18-0.36Q45.84 0.48 42.72 0.48L42.72 0.48Q37.08 0.48 33.94-2.12Q30.80-4.72 30.80-9.96L30.80-9.96Q30.80-14.92 34.08-17.42Q37.36-19.92 43.76-19.92L43.76-19.92Z M81.20-9.72Q81.20-4.56 77.98-2.04Q74.76 0.48 68.72 0.48L68.72 0.48Q62.68 0.48 59.46-2.04Q56.24-4.56 56.24-9.72L56.24-9.72Q56.24-14.88 59.46-17.40Q62.68-19.92 68.72-19.92L68.72-19.92Q74.76-19.92 77.98-17.40Q81.20-14.88 81.20-9.72L81.20-9.72ZM64.56-9.72Q64.56-6.16 64.90-4.24Q65.24-2.32 66.12-1.44Q67-0.56 68.72-0.56L68.72-0.56Q70.44-0.56 71.32-1.44Q72.20-2.32 72.54-4.24Q72.88-6.16 72.88-9.72L72.88-9.72Q72.88-13.28 72.54-15.20Q72.20-17.12 71.32-18Q70.44-18.88 68.72-18.88L68.72-18.88Q67-18.88 66.12-18Q65.24-17.12 64.90-15.20Q64.56-13.28 64.56-9.72L64.56-9.72Z M108.40-20.20L107.40-20.20Q106.56-22.80 105.82-24.12Q105.08-25.44 103.76-26.12Q102.44-26.80 100.04-26.80L100.04-26.80L94.84-26.80L94.84-14.92L104.84-14.92L104.84-13.72L94.84-13.72L94.84-2.04Q94.84-1.60 95.02-1.44Q95.20-1.28 95.80-1.16L95.80-1.16L97.52-0.80L97.52 0L84.24 0L84.24-0.80L85.72-1.12Q86.32-1.24 86.50-1.40Q86.68-1.56 86.68-2L86.68-2L86.68-26Q86.68-26.44 86.50-26.60Q86.32-26.76 85.72-26.88L85.72-26.88L84.24-27.20L84.24-28L108.40-28L108.40-20.20Z M117.56-22.48Q115.68-22.48 114.56-23.34Q113.44-24.20 113.44-25.84L113.44-25.84Q113.44-27.48 114.56-28.34Q115.68-29.20 117.56-29.20L117.56-29.20Q119.44-29.20 120.56-28.34Q121.68-27.48 121.68-25.84L121.68-25.84Q121.68-24.20 120.56-23.34Q119.44-22.48 117.56-22.48L117.56-22.48ZM111.20 0L111.20-0.72L112.60-1.04Q113.20-1.16 113.38-1.32Q113.56-1.48 113.56-1.92L113.56-1.92L113.56-17.04Q113.56-17.48 113.38-17.64Q113.20-17.80 112.60-17.92L112.60-17.92L111.20-18.24L111.20-18.96L120.80-20.16L121.56-20.16L121.56-1.92Q121.56-1.48 121.74-1.32Q121.92-1.16 122.52-1.04L122.52-1.04L123.92-0.72L123.92 0L111.20 0Z M151.72-1.92Q151.72-1.48 151.90-1.32Q152.08-1.16 152.68-1.04L152.68-1.04L154.08-0.72L154.08 0L145.76 0Q144.68 0 144.20-0.56Q143.72-1.12 143.72-2.24L143.72-2.24L143.72-14.40Q143.72-16.20 143.14-16.96Q142.56-17.72 141.20-17.72L141.20-17.72Q138.80-17.72 136.28-15.72L136.28-15.72L136.28-1.92Q136.28-1.48 136.46-1.30Q136.64-1.12 137.20-1L137.20-1L138.56-0.72L138.56 0L125.92 0L125.92-0.72L127.32-1.04Q127.92-1.16 128.10-1.32Q128.28-1.48 128.28-1.92L128.28-1.92L128.28-17.04Q128.28-17.48 128.10-17.64Q127.92-17.80 127.32-17.92L127.32-17.92L125.92-18.24L125.92-18.96L135.52-20.16L136.20-20.16L136.20-16.92Q137.72-18.16 139.92-19.04Q142.12-19.92 144.80-19.92L144.80-19.92Q148.52-19.92 150.12-18.36Q151.72-16.80 151.72-13.68L151.72-13.68L151.72-1.92Z M175.60 0Q174.52 0 174.04-0.56Q173.56-1.12 173.56-2.24L173.56-2.24Q171.00 0.48 166.60 0.48L166.60 0.48Q162.20 0.48 159.58-2.04Q156.96-4.56 156.96-9.92L156.96-9.92Q156.96-15.08 159.56-17.50Q162.16-19.92 166.60-19.92L166.60-19.92Q169.00-19.92 170.62-19.36Q172.24-18.80 173.48-17.92L173.48-17.92L173.48-26.08Q173.48-26.52 173.30-26.68Q173.12-26.84 172.52-26.96L172.52-26.96L171.12-27.28L171.12-28L180.72-29.20L181.48-29.20L181.48-1.92Q181.48-1.48 181.66-1.32Q181.84-1.16 182.44-1.04L182.44-1.04L183.84-0.72L183.84 0L175.60 0ZM168.96-1.24Q171.32-1.24 173.48-3.48L173.48-3.48L173.48-16.72Q171.56-18.24 169.16-18.24L169.16-18.24Q166.96-18.24 166.08-16.30Q165.20-14.36 165.20-9.92L165.20-9.92Q165.20-6.76 165.54-4.90Q165.88-3.04 166.70-2.14Q167.52-1.24 168.96-1.24L168.96-1.24Z M195.52-0.48Q197.40-0.48 198.30-1.04Q199.20-1.60 199.20-3L199.20-3Q199.20-3.96 198.72-4.56Q198.24-5.16 197.20-5.64Q196.16-6.12 193.88-6.96L193.88-6.96Q190.00-8.36 188.36-9.86Q186.72-11.36 186.72-14L186.72-14Q186.72-17 188.96-18.46Q191.20-19.92 195.76-19.92L195.76-19.92Q198.08-19.92 200.32-19.46Q202.56-19 203.80-18.40L203.80-18.40L203.32-13.60L202.64-13.60Q201.56-16.28 200.04-17.66Q198.52-19.04 195.64-19.04L195.64-19.04Q193.80-19.04 192.80-18.54Q191.80-18.04 191.80-16.72L191.80-16.72Q191.80-15.80 192.26-15.24Q192.72-14.68 193.70-14.20Q194.68-13.72 196.96-12.80L196.96-12.80Q200.24-11.48 201.92-10.52Q203.60-9.56 204.40-8.32Q205.20-7.08 205.20-5.20L205.20-5.20Q205.20-2.20 202.90-0.86Q200.60 0.48 196.00 0.48L196.00 0.48Q193.56 0.48 190.90 0.02Q188.24-0.44 186.92-1.04L186.92-1.04L187.48-6.48L188.16-6.48Q188.88-3.32 190.72-1.90Q192.56-0.48 195.52-0.48L195.52-0.48Z"/></g>
</svg>
</g><g opacity="1" transform="rotate(0 180.2216 197.2525)">
<svg width="171.9688" height="171.8733" x="180.2216" y="197.2525" version="1.1" preserveAspectRatio="none" viewBox="5 5 90 89.94999694824219">
  <g transform="matrix(1 0 0 1 0 0)" class="icon1"><path d="M94.951,54.972V25.316c0-0.166-0.083-0.322-0.221-0.413L64.943,5.077c-0.007-0.005-0.016-0.003-0.023-0.007  c-0.007-0.004-0.01-0.013-0.018-0.017c-0.034-0.018-0.073-0.015-0.109-0.025C64.751,5.017,64.711,5,64.668,5  c-0.044,0-0.083,0.017-0.125,0.028c-0.037,0.01-0.075,0.006-0.109,0.025c-0.008,0.004-0.011,0.013-0.018,0.017  c-0.007,0.004-0.016,0.003-0.023,0.007L34.56,24.931c-0.138,0.092-0.221,0.247-0.221,0.413V55.17c0,0.088,0.026,0.17,0.068,0.244  c0.014,0.024,0.038,0.039,0.056,0.061c0.031,0.038,0.056,0.08,0.098,0.108l29.833,19.888c0.083,0.056,0.18,0.083,0.276,0.083  c0.096,0,0.192-0.028,0.276-0.083l29.834-19.888C94.917,55.491,95,55.337,95,55.17C95,55.1,94.978,55.034,94.951,54.972z   M93.957,54.208L65.165,34.986V6.419l28.792,19.164V54.208z M35.332,25.61L64.171,6.418v28.568L35.636,54.038l-0.304,0.203V25.61z   M64.669,74.46L35.731,55.17l0.541-0.361l28.396-18.956l28.936,19.319L64.669,74.46z"></path><rect x="48.759" y="54.852" transform="matrix(0.834 -0.5518 0.5518 0.834 -19.7759 44.9677)" width="32.17" height="0.994"></rect><path d="M86.032,31.314c0.952-0.017,1.536-0.901,1.304-1.973c-0.232-1.072-1.192-1.927-2.144-1.91  c-0.952,0.017-1.536,0.901-1.304,1.973C84.12,30.476,85.08,31.331,86.032,31.314z"></path><path d="M75.265,25.664c0.952-0.017,1.536-0.901,1.304-1.973c-0.232-1.072-1.192-1.927-2.144-1.91  c-0.952,0.017-1.536,0.901-1.304,1.973C73.353,24.827,74.313,25.682,75.265,25.664z"></path><path d="M83.934,38.127c0.744,0,1.498-0.062,2.252-0.189l-0.165-0.98c-4.995,0.845-9.93-1.4-12.58-5.716l-0.846,0.52  C75.056,35.772,79.348,38.127,83.934,38.127z"></path><polygon points="32.179,27.624 32.179,26.429 23.903,31.946 23.92,33.129 "></polygon><polygon points="32.179,36.401 18.944,45.224 18.933,46.442 32.179,37.595 "></polygon><polygon points="32.179,47.567 32.179,46.372 13.966,58.513 13.969,59.706 "></polygon><polygon points="32.327,57.44 32.179,57.341 32.179,56.344 5,74.462 5.003,75.669 "></polygon><polygon points="5.003,85.608 39.939,62.514 39.042,61.916 5.003,84.401 "></polygon><polygon points="46.502,66.889 5.003,94.344 5.009,94.95 5.902,94.942 47.399,67.487 "></polygon><polygon points="53.978,71.872 19.508,94.942 21.277,94.942 54.873,72.469 "></polygon><polygon points="33.966,94.942 35.729,94.942 62.156,77.324 61.26,76.727 "></polygon></g>
</svg>
</g></svg></svg>